<svg xmlns="http://www.w3.org/2000/svg" width="136" height="136" fill="none"><rect width="135.366" height="131.076" x=".006" y="4.459" fill="#fff" rx="11.12"/><rect width="135.366" height="83.425" x=".006" y=".535" fill="#fff" rx="11.12"/><path fill="#fff" d="m42.205 36.199-.619 50.12 48.062.543.62-50.12-48.063-.543z"/><path fill="#DBDBDB" d="m41.587 86.318 48.062.456-.088.082.572-50.118.134.133-48.062-.584.093-.088-.711 50.12zm0 0 .527-50.12-.003-.09.096.002 48.06.5h.134v.128l-.667 50.121.002.085-.09.002-48.06-.628z"/><path fill="#FFC727" d="m44.042 83.814 43.211.49.557-45.063-43.212-.49-.556 45.063z"/><path fill="#8526FE" d="m44.042 83.814 43.211.49.557-45.063-43.212-.49-.556 45.063z"/><path fill="#31ADF7" d="m58.48 69.12 28.957.327L73.132 55.41 58.48 69.12z"/><path fill="#fff" d="m58.48 69.12 28.957.327L73.132 55.41 58.48 69.12z" opacity=".2"/><path fill="#23E6F3" d="m44.227 68.97 25.676.29-12.727-9.18-12.949 8.89z"/><path fill="#040406" d="m87.438 69.448-43.211-.49-.188 15.24 43.21.489.19-15.24z"/><path fill="#fff" d="M57.864 49.849c-.025 2.092-1.818 3.77-4.004 3.745-2.185-.024-3.937-1.74-3.912-3.833.025-2.092 1.818-3.769 4.004-3.745 2.185.024 3.937 1.74 3.912 3.833z" opacity=".6"/><path fill="#040406" d="M102.514 95.265H28.713V24.607h73.801v70.658zm-72.769-.989h71.737v-68.68H29.745v68.68z"/><path fill="#040406" d="M33.245 90.926h-8.032v7.69h8.032v-7.69zm-1.331-69.315h-8.032v7.69h8.032v-7.69zm74.263 69.06h-8.032v7.69h8.032v-7.69zm-.163-69.414h-8.032v7.69h8.032v-7.69z"/><g filter="url(#a)"><rect width="59.534" height="6.329" x="54.469" y="73.594" fill="#fff" rx="3.165"/></g><rect width="56.656" height="3.098" x="56.024" y="75.21" fill="#8526FE" rx="1.549"/><path fill="#FFC727" d="M100.504 77a5.092 5.092 0 0 1-.924 2.915 5.436 5.436 0 0 1-2.459 1.932 5.707 5.707 0 0 1-3.166.298 5.56 5.56 0 0 1-2.806-1.435 5.181 5.181 0 0 1-1.5-2.687 5.04 5.04 0 0 1 .313-3.03 5.303 5.303 0 0 1 2.018-2.355 5.654 5.654 0 0 1 3.044-.884c1.454 0 2.847.552 3.875 1.536a5.136 5.136 0 0 1 1.605 3.71z"/><ellipse cx="88.384" cy="51.831" fill="#FCFCFC" rx="9.491" ry="9.087"/><path fill="#040406" d="M88.457 58.09a6.882 6.882 0 0 1-3.705-1.076 6.454 6.454 0 0 1-2.457-2.866 6.133 6.133 0 0 1-.38-3.69 6.306 6.306 0 0 1 1.826-3.268 6.766 6.766 0 0 1 3.415-1.748 6.946 6.946 0 0 1 3.853.363 6.616 6.616 0 0 1 2.993 2.352 6.194 6.194 0 0 1 1.124 3.548c-.001 1.693-.704 3.316-1.955 4.513a6.828 6.828 0 0 1-4.714 1.872zm0-12.513a6.61 6.61 0 0 0-3.556 1.033 6.193 6.193 0 0 0-2.357 2.75 5.886 5.886 0 0 0-.364 3.54 6.051 6.051 0 0 0 1.751 3.137 6.492 6.492 0 0 0 3.277 1.677 6.665 6.665 0 0 0 3.698-.348 6.348 6.348 0 0 0 2.872-2.257 5.943 5.943 0 0 0 1.079-3.404 6.003 6.003 0 0 0-1.876-4.332 6.553 6.553 0 0 0-4.524-1.796z"/><path fill="#040406" d="M88.457 54.717a3.25 3.25 0 0 1-1.748-.508 3.044 3.044 0 0 1-1.159-1.352 2.894 2.894 0 0 1-.179-1.74 2.974 2.974 0 0 1 .861-1.542c.44-.421 1-.708 1.611-.825a3.276 3.276 0 0 1 1.818.172 3.121 3.121 0 0 1 1.412 1.11c.346.495.53 1.077.53 1.673a2.954 2.954 0 0 1-.923 2.128c-.59.565-1.39.883-2.223.884zm0-5.637a2.83 2.83 0 0 0-1.523.442 2.645 2.645 0 0 0-1.01 1.178 2.521 2.521 0 0 0-.157 1.517c.106.51.368.977.751 1.344.383.367.872.617 1.404.719.532.1 1.083.049 1.584-.15a2.72 2.72 0 0 0 1.23-.967 2.54 2.54 0 0 0 .463-1.458 2.57 2.57 0 0 0-.803-1.857 2.805 2.805 0 0 0-1.94-.768z"/><path fill="#040406" d="M88.457 48.883a3.007 3.007 0 0 1 2.002.867c.525.526.819 1.225.819 1.952 0 .728-.294 1.427-.82 1.952a3.007 3.007 0 0 1-2.001.867v-5.638z"/><path fill="#8526FE" stroke="#000" stroke-width="1.032" d="M40.169 35.25h-24.1V18.666h24.1v16.582z"/><path fill="#31ADF7" d="m24.213 34.775 15.494.031-7.73-8.084-7.764 8.053z"/><path fill="#fff" d="m24.213 34.775 15.494.031-7.73-8.084-7.764 8.053z" opacity=".2"/><path fill="#23E6F3" d="m16.588 34.767 13.738.027-6.86-5.268-6.878 5.24z"/><path fill="#fff" d="M23.377 24.462c-.014 1.217-1.057 2.192-2.328 2.179-1.271-.014-2.29-1.013-2.275-2.23.014-1.216 1.057-2.192 2.328-2.178 1.271.014 2.29 1.012 2.275 2.23z" opacity=".6"/><defs><filter id="a" width="67.793" height="14.588" x="50.34" y="73.594" color-interpolation-filters="sRGB" filterUnits="userSpaceOnUse"><feFlood flood-opacity="0" result="BackgroundImageFix"/><feColorMatrix in="SourceAlpha" result="hardAlpha" values="0 0 0 0 0 0 0 0 0 0 0 0 0 0 0 0 0 0 127 0"/><feOffset dy="4.129"/><feGaussianBlur stdDeviation="2.065"/><feComposite in2="hardAlpha" operator="out"/><feColorMatrix values="0 0 0 0 0.4125 0 0 0 0 0.4125 0 0 0 0 0.4125 0 0 0 0.25 0"/><feBlend in2="BackgroundImageFix" result="effect1_dropShadow_203_24246"/><feBlend in="SourceGraphic" in2="effect1_dropShadow_203_24246" result="shape"/></filter></defs></svg>